<svg width="218" height="40" viewBox="0 0 218 40" fill="none" xmlns="http://www.w3.org/2000/svg">
<path d="M62.0238 11.248V28H58.6638V11.248H62.0238ZM70.5515 14.488C71.5435 14.488 72.4155 14.688 73.1675 15.088C73.9195 15.472 74.5115 15.976 74.9435 16.6V14.704H78.3275V28.096C78.3275 29.328 78.0795 30.424 77.5835 31.384C77.0875 32.36 76.3435 33.128 75.3515 33.688C74.3595 34.264 73.1595 34.552 71.7515 34.552C69.8635 34.552 68.3115 34.112 67.0955 33.232C65.8955 32.352 65.2155 31.152 65.0555 29.632H68.3915C68.5675 30.24 68.9435 30.72 69.5195 31.072C70.1115 31.44 70.8235 31.624 71.6555 31.624C72.6315 31.624 73.4235 31.328 74.0315 30.736C74.6395 30.16 74.9435 29.28 74.9435 28.096V26.032C74.5115 26.656 73.9115 27.176 73.1435 27.592C72.3915 28.008 71.5275 28.216 70.5515 28.216C69.4315 28.216 68.4075 27.928 67.4795 27.352C66.5515 26.776 65.8155 25.968 65.2715 24.928C64.7435 23.872 64.4795 22.664 64.4795 21.304C64.4795 19.96 64.7435 18.768 65.2715 17.728C65.8155 16.688 66.5435 15.888 67.4555 15.328C68.3835 14.768 69.4155 14.488 70.5515 14.488ZM74.9435 21.352C74.9435 20.536 74.7835 19.84 74.4635 19.264C74.1435 18.672 73.7115 18.224 73.1675 17.92C72.6235 17.6 72.0395 17.44 71.4155 17.44C70.7915 17.44 70.2155 17.592 69.6875 17.896C69.1595 18.2 68.7275 18.648 68.3915 19.24C68.0715 19.816 67.9115 20.504 67.9115 21.304C67.9115 22.104 68.0715 22.808 68.3915 23.416C68.7275 24.008 69.1595 24.464 69.6875 24.784C70.2315 25.104 70.8075 25.264 71.4155 25.264C72.0395 25.264 72.6235 25.112 73.1675 24.808C73.7115 24.488 74.1435 24.04 74.4635 23.464C74.7835 22.872 74.9435 22.168 74.9435 21.352ZM88.9771 14.512C90.5611 14.512 91.8411 15.016 92.8171 16.024C93.7931 17.016 94.2811 18.408 94.2811 20.2V28H90.9211V20.656C90.9211 19.6 90.6571 18.792 90.1291 18.232C89.6011 17.656 88.8811 17.368 87.9691 17.368C87.0411 17.368 86.3051 17.656 85.7611 18.232C85.2331 18.792 84.9691 19.6 84.9691 20.656V28H81.6091V14.704H84.9691V16.36C85.4171 15.784 85.9851 15.336 86.6731 15.016C87.3771 14.68 88.1451 14.512 88.9771 14.512ZM99.1803 13.12C98.5883 13.12 98.0923 12.936 97.6923 12.568C97.3083 12.184 97.1163 11.712 97.1163 11.152C97.1163 10.592 97.3083 10.128 97.6923 9.76C98.0923 9.376 98.5883 9.184 99.1803 9.184C99.7723 9.184 100.26 9.376 100.644 9.76C101.044 10.128 101.244 10.592 101.244 11.152C101.244 11.712 101.044 12.184 100.644 12.568C100.26 12.936 99.7723 13.12 99.1803 13.12ZM100.836 14.704V28H97.4763V14.704H100.836ZM108.068 17.464V23.896C108.068 24.344 108.172 24.672 108.38 24.88C108.604 25.072 108.972 25.168 109.484 25.168H111.044V28H108.932C106.1 28 104.684 26.624 104.684 23.872V17.464H103.1V14.704H104.684V11.416H108.068V14.704H111.044V17.464H108.068ZM125.821 21.064C125.821 21.544 125.789 21.976 125.725 22.36H116.005C116.085 23.32 116.421 24.072 117.013 24.616C117.605 25.16 118.333 25.432 119.197 25.432C120.445 25.432 121.333 24.896 121.861 23.824H125.485C125.101 25.104 124.365 26.16 123.277 26.992C122.189 27.808 120.853 28.216 119.269 28.216C117.989 28.216 116.837 27.936 115.813 27.376C114.805 26.8 114.013 25.992 113.437 24.952C112.877 23.912 112.597 22.712 112.597 21.352C112.597 19.976 112.877 18.768 113.437 17.728C113.997 16.688 114.781 15.888 115.789 15.328C116.797 14.768 117.957 14.488 119.269 14.488C120.533 14.488 121.661 14.76 122.653 15.304C123.661 15.848 124.437 16.624 124.981 17.632C125.541 18.624 125.821 19.768 125.821 21.064ZM122.341 20.104C122.325 19.24 122.013 18.552 121.405 18.04C120.797 17.512 120.053 17.248 119.173 17.248C118.341 17.248 117.637 17.504 117.061 18.016C116.501 18.512 116.157 19.208 116.029 20.104H122.341ZM150.504 14.512C152.136 14.512 153.448 15.016 154.44 16.024C155.448 17.016 155.952 18.408 155.952 20.2V28H152.592V20.656C152.592 19.616 152.328 18.824 151.8 18.28C151.272 17.72 150.552 17.44 149.64 17.44C148.728 17.44 148 17.72 147.456 18.28C146.928 18.824 146.664 19.616 146.664 20.656V28H143.304V20.656C143.304 19.616 143.04 18.824 142.512 18.28C141.984 17.72 141.264 17.44 140.352 17.44C139.424 17.44 138.688 17.72 138.144 18.28C137.616 18.824 137.352 19.616 137.352 20.656V28H133.992V14.704H137.352V16.312C137.784 15.752 138.336 15.312 139.008 14.992C139.696 14.672 140.448 14.512 141.264 14.512C142.304 14.512 143.232 14.736 144.048 15.184C144.864 15.616 145.496 16.24 145.944 17.056C146.376 16.288 147 15.672 147.816 15.208C148.648 14.744 149.544 14.512 150.504 14.512ZM165.044 28.216C163.764 28.216 162.612 27.936 161.588 27.376C160.564 26.8 159.756 25.992 159.164 24.952C158.588 23.912 158.3 22.712 158.3 21.352C158.3 19.992 158.596 18.792 159.188 17.752C159.796 16.712 160.62 15.912 161.66 15.352C162.7 14.776 163.86 14.488 165.14 14.488C166.42 14.488 167.58 14.776 168.62 15.352C169.66 15.912 170.476 16.712 171.068 17.752C171.676 18.792 171.98 19.992 171.98 21.352C171.98 22.712 171.668 23.912 171.044 24.952C170.436 25.992 169.604 26.8 168.548 27.376C167.508 27.936 166.34 28.216 165.044 28.216ZM165.044 25.288C165.652 25.288 166.22 25.144 166.748 24.856C167.292 24.552 167.724 24.104 168.044 23.512C168.364 22.92 168.524 22.2 168.524 21.352C168.524 20.088 168.188 19.12 167.516 18.448C166.86 17.76 166.052 17.416 165.092 17.416C164.132 17.416 163.324 17.76 162.668 18.448C162.028 19.12 161.708 20.088 161.708 21.352C161.708 22.616 162.02 23.592 162.644 24.28C163.284 24.952 164.084 25.288 165.044 25.288ZM181.813 14.512C183.397 14.512 184.677 15.016 185.653 16.024C186.629 17.016 187.117 18.408 187.117 20.2V28H183.757V20.656C183.757 19.6 183.493 18.792 182.965 18.232C182.437 17.656 181.717 17.368 180.805 17.368C179.877 17.368 179.141 17.656 178.597 18.232C178.069 18.792 177.805 19.6 177.805 20.656V28H174.445V14.704H177.805V16.36C178.253 15.784 178.821 15.336 179.509 15.016C180.213 14.68 180.981 14.512 181.813 14.512ZM202.672 21.064C202.672 21.544 202.64 21.976 202.576 22.36H192.856C192.936 23.32 193.272 24.072 193.864 24.616C194.456 25.16 195.184 25.432 196.048 25.432C197.296 25.432 198.184 24.896 198.712 23.824H202.336C201.952 25.104 201.216 26.16 200.128 26.992C199.04 27.808 197.704 28.216 196.12 28.216C194.84 28.216 193.688 27.936 192.664 27.376C191.656 26.8 190.864 25.992 190.288 24.952C189.728 23.912 189.448 22.712 189.448 21.352C189.448 19.976 189.728 18.768 190.288 17.728C190.848 16.688 191.632 15.888 192.64 15.328C193.648 14.768 194.808 14.488 196.12 14.488C197.384 14.488 198.512 14.76 199.504 15.304C200.512 15.848 201.288 16.624 201.832 17.632C202.392 18.624 202.672 19.768 202.672 21.064ZM199.192 20.104C199.176 19.24 198.864 18.552 198.256 18.04C197.648 17.512 196.904 17.248 196.024 17.248C195.192 17.248 194.488 17.504 193.912 18.016C193.352 18.512 193.008 19.208 192.88 20.104H199.192ZM217.845 14.704L209.613 34.288H206.037L208.917 27.664L203.589 14.704H207.357L210.789 23.992L214.269 14.704H217.845Z" fill="white"/>
<path d="M34.1422 5.85781C30.3647 2.08031 25.3422 0 20 0C14.6578 0 9.63531 2.08031 5.85781 5.85781C2.08031 9.63531 0 14.6578 0 20C0 25.3422 2.08039 30.3646 5.85781 34.1422C9.63523 37.9198 14.6578 40 20 40C25.3422 40 30.3647 37.9197 34.1422 34.1422C37.9197 30.3647 40 25.3422 40 20C40 14.6578 37.9196 9.63539 34.1422 5.85781Z" fill="#33CC95"/>
<g clip-path="url(#clip0)">
<path d="M20.5714 8V33.1429" stroke="white" stroke-width="2" stroke-linecap="round" stroke-linejoin="round"/>
<path d="M26.2857 12.5714H17.7143C16.6534 12.5714 15.636 12.9929 14.8859 13.743C14.1357 14.4931 13.7143 15.5106 13.7143 16.5714C13.7143 17.6323 14.1357 18.6497 14.8859 19.3999C15.636 20.15 16.6534 20.5714 17.7143 20.5714H23.4286C24.4894 20.5714 25.5069 20.9929 26.257 21.743C27.0072 22.4932 27.4286 23.5106 27.4286 24.5714C27.4286 25.6323 27.0072 26.6497 26.257 27.3999C25.5069 28.15 24.4894 28.5714 23.4286 28.5714H13.7143" stroke="white" stroke-width="2" stroke-linecap="round" stroke-linejoin="round"/>
</g>
<defs>
<clipPath id="clip0">
<rect width="27.4286" height="27.4286" fill="white" transform="translate(6.85715 6.85714)"/>
</clipPath>
</defs>
</svg>
